<svg width="20" height="20" viewBox="0 0 20 20" fill="none" xmlns="http://www.w3.org/2000/svg">
<path fill-rule="evenodd" clip-rule="evenodd" d="M6.04102 6.04297V5.7513C6.04102 4.23133 6.34118 3.00475 7.17199 2.17394C8.0028 1.34314 9.22937 1.04297 10.7493 1.04297H14.2493C15.7693 1.04297 16.9959 1.34314 17.8267 2.17394C18.6575 3.00475 18.9577 4.23133 18.9577 5.7513V9.2513C18.9577 10.7713 18.6575 11.9979 17.8267 12.8287C16.9959 13.6595 15.7693 13.9596 14.2493 13.9596H13.9577V14.2513C13.9577 15.7713 13.6575 16.9979 12.8267 17.8287C11.9959 18.6595 10.7693 18.9596 9.24935 18.9596H5.74935C4.22937 18.9596 3.0028 18.6595 2.17199 17.8287C1.34118 16.9979 1.04102 15.7713 1.04102 14.2513V10.7513C1.04102 9.23132 1.34118 8.00475 2.17199 7.17394C3.0028 6.34314 4.22937 6.04297 5.74935 6.04297H6.04102ZM7.29102 5.7513C7.29102 4.35461 7.57418 3.53952 8.05587 3.05783C8.53757 2.57613 9.35266 2.29297 10.7493 2.29297H14.2493C15.646 2.29297 16.4611 2.57613 16.9428 3.05783C17.4245 3.53952 17.7077 4.35461 17.7077 5.7513V9.2513C17.7077 10.648 17.4245 11.4631 16.9428 11.9448C16.4611 12.4265 15.646 12.7096 14.2493 12.7096H13.9577V10.7513C13.9577 9.23133 13.6575 8.00475 12.8267 7.17394C11.9959 6.34314 10.7693 6.04297 9.24935 6.04297H7.29102V5.7513ZM5.74935 7.29297C4.35266 7.29297 3.53757 7.57613 3.05587 8.05783C2.57418 8.53952 2.29102 9.35461 2.29102 10.7513V14.2513C2.29102 15.648 2.57418 16.4631 3.05587 16.9448C3.53757 17.4265 4.35266 17.7096 5.74935 17.7096H9.24935C10.646 17.7096 11.4611 17.4265 11.9428 16.9448C12.4245 16.4631 12.7077 15.648 12.7077 14.2513V10.7513C12.7077 9.35461 12.4245 8.53952 11.9428 8.05783C11.4611 7.57613 10.646 7.29297 9.24935 7.29297H5.74935Z" fill="#EFEDF1"/>
</svg>
