<svg width="149" height="121" viewBox="0 0 149 121" fill="none" xmlns="http://www.w3.org/2000/svg">
<path fill-rule="evenodd" clip-rule="evenodd" d="M100.369 107.853C120.11 96.7695 128.032 73.4237 119.836 53.421L42.1615 97.0315C55.8765 113.936 80.6281 118.937 100.369 107.853ZM36.4118 100.26C35.0986 98.5778 33.8792 96.7971 32.765 94.9204L122.654 44.4519C123.768 46.3286 124.744 48.2459 125.585 50.1928C135.564 73.2877 126.551 100.54 103.658 113.393C80.7658 126.246 51.9895 120.211 36.4118 100.26Z" fill="#C69A71"/>
<path fill-rule="evenodd" clip-rule="evenodd" d="M10.8348 84.9813C11.9298 94.5121 11.7459 99.3349 0.357178 105.729L148.482 22.5639C137.078 28.9669 132.718 26.6892 124.762 20.9924C124.258 20.6317 123.74 20.2572 123.205 19.8703C122.804 19.5807 122.393 19.2841 121.972 18.9812C120.735 18.0913 119.405 17.1465 117.954 16.1609C97.3481 -1.5221 66.6465 -5.35647 41.5318 8.74425C16.4172 22.845 4.48102 50.6185 9.92551 76.814C10.0804 78.5273 10.2589 80.1185 10.4341 81.6046C10.4904 82.0817 10.5463 82.5479 10.6009 83.0038C10.6826 83.6851 10.7616 84.344 10.8348 84.9813ZM28.7162 78.4719C21.016 57.7443 29.4378 34.0013 49.7514 22.5962C70.0649 11.191 95.42 15.9698 110.029 32.8187L28.7162 78.4719Z" fill="#C69A71"/>
</svg>
